<svg version="1.0" xmlns="http://www.w3.org/2000/svg"
     width="600.000000pt" height="600.000000pt" viewBox="0 0 600.000000 600.000000"
     preserveAspectRatio="xMidYMid meet">

    <g transform="translate(0.000000,600.000000) scale(0.100000,-0.100000)"
       fill="#528D36" stroke="none">
        <path d="M4711 4945 c-266 -145 -486 -267 -489 -270 -3 -3 33 -81 81 -174 48
-92 87 -171 87 -174 0 -4 -37 -25 -82 -48 -46 -23 -111 -57 -145 -76 l-62 -34
30 -65 c16 -36 29 -70 29 -74 0 -5 -21 -3 -47 5 l-46 14 -311 -303 c-171 -167
-337 -327 -368 -356 l-58 -52 -28 19 c-15 10 -104 69 -197 132 l-169 114 54
14 c147 37 274 169 316 328 8 28 14 87 14 133 0 186 -101 346 -268 425 -61 29
-75 32 -167 32 -92 0 -106 -3 -168 -32 -176 -84 -278 -263 -264 -468 6 -95 33
-171 87 -249 29 -41 35 -56 23 -52 -10 3 -86 23 -168 45 l-150 40 -269 -73
-268 -73 -102 -227 c-57 -124 -106 -229 -109 -232 -3 -4 -51 24 -106 61 l-100
68 -130 -124 c-72 -67 -131 -125 -131 -128 0 -3 108 -70 240 -148 l240 -142
39 52 c21 29 120 165 221 302 100 138 183 251 184 252 1 1 33 -6 71 -16 58
-15 70 -21 68 -37 -1 -10 -50 -239 -108 -509 -71 -328 -112 -496 -123 -508
-42 -47 -574 -542 -582 -542 -5 0 -193 175 -419 388 -225 214 -413 388 -418
387 -7 -1 -442 -662 -439 -667 1 -1 119 31 261 71 l260 73 47 -61 c447 -583
548 -711 558 -708 7 1 260 104 564 229 l551 226 282 73 c155 41 288 74 295 74
8 0 77 -200 188 -545 95 -300 176 -545 178 -545 9 0 702 375 702 380 0 3 -117
32 -260 64 l-260 59 -5 31 c-4 17 -37 233 -75 479 -37 247 -70 451 -73 453 -2
3 -151 31 -330 62 -179 31 -328 60 -332 63 -4 5 158 450 270 741 6 16 10 16
53 -2 26 -10 172 -68 325 -128 l279 -110 255 341 c195 262 260 343 279 345 13
2 85 -4 160 -13 75 -8 138 -14 139 -13 1 2 6 19 12 38 l10 35 34 -72 34 -71
180 63 c99 35 182 62 186 60 3 -3 48 -97 100 -211 52 -113 99 -208 104 -210 9
-4 948 506 967 525 3 3 -163 345 -370 758 l-377 753 -484 -265z m-132 -976
c67 -127 123 -236 124 -242 2 -10 -210 -85 -244 -86 -11 -1 -26 22 -46 72
l-30 72 19 65 c10 36 18 70 18 77 0 6 -24 19 -52 28 -29 10 -56 20 -60 24 -4
3 -18 32 -33 64 l-25 58 102 49 c57 28 104 50 105 50 1 0 56 -104 122 -231z"/>
    </g>
</svg>
